{"title":"Guardians.of.the.Galaxy.2014.BRRiP.XViD.AC3.5.1.ReLeNTLesS","uid":11482649,"size":1666362056,"categoryP":"video","categoryS":"movies","magnet":"?xt=urn:btih:7e879ae7dd3b9217b106d41a3cc0f8e42f817578&amp;dn=Guardians.of.the.Galaxy.2014.BRRiP.XViD.AC3.5.1.ReLeNTLesS&amp;tr=udp%3A%2F%2Ftracker.openbittorrent.com%3A80&amp;tr=udp%3A%2F%2Fopen.demonii.com%3A1337&amp;tr=udp%3A%2F%2Ftracker.coppersurfer.tk%3A6969&amp;tr=udp%3A%2F%2Fexodus.desync.com%3A6969","seeders":1,"leechers":0,"uploader":"TvTeam","files":4,"time":1416191810,"description":" &lt;a href=&quot;http://www.torrenting.com&quot; rel=&quot;nofollow&quot; target=&quot;_NEW&quot;&gt;http://www.torrenting.com&lt;/a&gt;\n\nSign up is OPEN - for time being. Come and have fun.\n\n------------------------------------------------------------------P0STER\n[IMG]http://lookpic.com/O/i2/112/8ft8HuN.jpeg[/IMG]\n\niMDB: http://www.imdb.com/title/tt2015381/\n\nGeneral\nComplete name                            : Guardians.of.the.Galaxy.2014.BRRiP.XViD.AC3.5.1.ReLeNTLesS.avi\nFormat                                   : AVI\nFormat/Info                              : Audio Video Interleave\nFile size                                : 1.53 GiB\nDuration                                 : 2h 0mn\nOverall bit rate                         : 1 810 Kbps\n\nVideo\nID                                       : 0\nFormat                                   : MPEG-4 Visual\nFormat profile                           : Advanced Simple@L5\nFormat settings, BVOP                    : 1\nFormat settings, QPel                    : No\nFormat settings, GMC                     : No warppoints\nFormat settings, Matrix                  : Default (H.263)\nMuxing mode                              : Packed bitstream\nCodec ID                                 : XVID\nCodec ID/Hint                            : XviD\nDuration                                 : 2h 0mn\nBit rate                                 : 1 482 Kbps\nWidth                                    : 720 pixels\nHeight                                   : 304 pixels\nDisplay aspect ratio                     : 2.35:1\nFrame rate                               : 23.976 fps\nColor space                              : YUV\nChroma subsampling                       : 4:2:0\nBit depth                                : 8 bits\nScan type                                : Progressive\nCompression mode                         : Lossy\nBits/(Pixel*Frame)                       : 0.282\nStream size                              : 1.25 GiB (82%)\nWriting library                          : XviD 1.2.1 (UTC 2008-12-04)\n\nAudio\nID                                       : 1\nFormat                                   : AC-3\nFormat/Info                              : Audio Coding 3\nMode extension                           : CM (complete main)\nFormat settings, Endianness              : Big\nCodec ID                                 : 2000\nDuration                                 : 2h 0mn\nBit rate mode                            : Constant\nBit rate                                 : 320 Kbps\nChannel(s)                               : 6 channels\nChannel positions                        : Front: L C R, Side: L R, LFE\nSampling rate                            : 44.1 KHz\nBit depth                                : 16 bits\nCompression mode                         : Lossy\nStream size                              : 277 MiB (18%)\nAlignment                                : Aligned on interleaves\nInterleave, duration                     : 70 ms (1.67 video frames)\nInterleave, preload duration             : 208 ms\nTitle                                    : Guardians.of.the.Galaxy.2014.ReLeNTLesS.audio.English.5.1\nSource                                       : SPARKS\n\nPL0T\nA group of space criminals must work together to stop the fanatical villain Ronan the Accuser from destroying the galaxy.\n\nCAST\nDirector: James Gunn\nWriters: James Gunn, Nicole Perlman\nStars: Chris Pratt, Vin Diesel, Bradley Cooper\n\nSCREENS\n[IMG]http://lookpic.com/O/i2/1654/RL5SYVc.png[/IMG]\n[IMG]http://lookpic.com/O/i2/1165/Sw2Kv6FC.png[/IMG]\n[IMG]http://lookpic.com/O/i2/858/wXLetqrv.png[/IMG]\n[IMG]http://lookpic.com/O/i2/696/b85cxnVH.png[/IMG]\n[IMG]http://lookpic.com/O/i2/1998/lAm0MpqG.png[/IMG]\n[IMG]http://lookpic.com/O/i2/91/nyusDp3b.png[/IMG]\n[IMG]http://lookpic.com/O/i2/1288/legD8btl.png[/IMG]\n[IMG]http://lookpic.com/O/i2/786/5j3ql1lo.png[/IMG]\n\nTRAiLER\n\nGREETZ\n\nM0RPH, M00SE, MiLLENiUM, Anonymous, TuX, \n\nACAB, KingStoner, FooKas, 4PlayHD, \n\nGodFather, Cld.... \n\nKeep up the good work guyz","torrent":{"xt":"urn:btih:7e879ae7dd3b9217b106d41a3cc0f8e42f817578","amp;dn":"Guardians.of.the.Galaxy.2014.BRRiP.XViD.AC3.5.1.ReLeNTLesS","amp;tr":["udp%3A%2F%2Ftracker.openbittorrent.com%3A80","udp%3A%2F%2Fopen.demonii.com%3A1337","udp%3A%2F%2Ftracker.coppersurfer.tk%3A6969","udp%3A%2F%2Fexodus.desync.com%3A6969"],"infoHash":"7e879ae7dd3b9217b106d41a3cc0f8e42f817578","infoHashBuffer":{"type":"Buffer","data":[126,135,154,231,221,59,146,23,177,6,212,26,60,192,248,228,47,129,117,120]},"announce":[],"urlList":[]}}